<svg xmlns="http://www.w3.org/2000/svg" viewBox="0 0 486.88 110.77"><title>nasher-logo</title><g id="51804e0b-b7cc-4d83-8b36-58f17949d609" data-name="Layer 2"><g id="7e80cb6c-af1d-4d54-9d90-38c3c2018503" data-name="Layer 1"><path d="M104.4 54.85h22.7L115.81 17zm364.68-26.67a11.77 11.77 0 0 0-6.52-11.06c-3.26-1.63-7.22-1.75-16.3-1.75h-7.1V41.1h5.36c5.24 0 7.22-.12 10.13-.23 3.37-.12 14.43-.7 14.43-12.7m-.58 22.71l18.29 33.42H469.2l-16.3-30.5h-13.74v30.5H423.9V2.09h26.2c10.95.12 18.28.12 25.5 5.94 5.13 4.19 9.09 10.71 9.09 20.26 0 15.72-11.53 21.19-16.19 22.59M405 84.3h-61.4V2.09h58.45v13.74h-43.31v19.33h39.59v13.28h-39.59v22H405zm-85.62 0h-15.52V46.93h-35.29V84.3H253.2V2.09h15.37v31.1h35.29V2.09h15.49zM183.16 23.87c0 7 7.69 8.38 15.14 9.78l8.5 1.86c11.06 2.33 26.66 6.87 26.66 24.46 0 18.86-17.47 26.43-34.93 26.43a55.13 55.13 0 0 1-14.67-1.86c-5.47-1.63-15.14-5.59-21.31-15.6l12.93-9.08c2 3 8.15 12.46 25.5 12.46a23.56 23.56 0 0 0 8.85-1.39c5.94-2.45 7-6.64 7-9.43 0-5.24-3.61-7.1-6.17-8.15-1.87-.7-2.1-.81-9.55-2.56l-9.9-2.1c-5.24-1.28-7.8-1.86-10.36-2.91-3.74-1.53-13.85-6.54-13.85-20.16C167 10 180.13 0 199.46 0c17.7 0 27.25 8.73 33.07 16.65L220 26.08c-2.79-4.08-8.15-12.23-21.31-12.23-8.27 0-15.49 3.73-15.49 10M152.37 84.3H136l-4.77-16.07h-30.91L95.55 84.3H79.13l27.71-82.21h17.47zm-88.81 0H50.17l-36-57.64.93 57.64H.1V2.09H14L50.28 60.2 48.42 2.09h15.14z" fill="#96d607"/><path d="M263.15 97.6h-1.62v9.47h1.23c2.14 0 5.11-.16 5.11-4.79A5.22 5.22 0 0 0 267 99c-1.1-1.46-2.64-1.44-3.87-1.44m-36.43 2.92c-.34 1.21-1 3.11-1.32 4.32h4.08l-2.1-6.8c-.21.82-.43 1.67-.66 2.49M190 97.21h-3.42v4.36h3.33a2.14 2.14 0 0 0 2.41-2.22c0-2.05-1.48-2.12-2.32-2.14m-18.89 3.31c-.34 1.21-1 3.11-1.32 4.32h4.08l-2.1-6.8c-.21.82-.43 1.67-.66 2.49m-44.14 1.6c0 3.84 2.14 5.25 4 5.25s4-1.37 4.08-4.75a6.29 6.29 0 0 0-1.3-4.38 3.91 3.91 0 0 0-2.82-1.25c-2.44 0-4 2.15-4 5.07M424 99.35c0-2.05-1.49-2.12-2.33-2.14h-3.42v4.36h3.32a2.14 2.14 0 0 0 2.43-2.22m62.87-5.16l-6.09 8.49v7.62h-4v-7.5l-6-8.61h4.63l3.46 5.53a7.5 7.5 0 0 1 .66-1.21l2.76-4.31zm-65.41 0c1.69 0 3.78 0 5.27 1.64a5.42 5.42 0 0 1 1.27 3.59 4.33 4.33 0 0 1-3.3 4.45l3.71 6.44H424l-3.19-5.75h-2.53v5.75h-4V94.19zm-11.39 16.12h-12.59V94.19h11.9v3.13h-7.89v2.92h7.36v3.06h-7.36v3.83h8.6zm-70.24-4.06a2.9 2.9 0 0 0 2.6 1.1c2.73 0 2.73-1.87 2.76-3.13v-10h4v9a8.49 8.49 0 0 1-.94 4.57c-1.73 2.79-5.31 2.92-6 2.92a8.55 8.55 0 0 1-3.74-.87c-3.1-1.6-3.1-4.43-3.08-6.62v-9h4.06v10a4.34 4.34 0 0 0 .3 2m-14.7 4.06h-12.6V94.19h11.9v3.13h-7.88v2.92h7.36v3.06h-7.36v3.83h8.59zm-77.76-12.91h-4.17v12.94h-4V97.37h-4.19v-3.2h12.4zM155 97.29h-8.3v3.38h7.68v3.13h-7.68v6.5h-4V94.19H155zm-79.5-3.1h4.06v10a4.33 4.33 0 0 0 .29 2 2.9 2.9 0 0 0 2.6 1.1c2.73 0 2.73-1.87 2.76-3.13v-10h4v9a8.53 8.53 0 0 1-.93 4.57c-1.73 2.79-5.31 2.92-6 2.92a8.55 8.55 0 0 1-3.74-.87c-3.1-1.6-3.1-4.43-3.08-6.62zm-4 16.12H58.87V94.19h11.89v3.13h-7.88v2.92h7.36v3.06h-7.36v3.83h8.59zM0 94.19h5.88l2.46 9 .57 2.58c.23-1.12.25-1.23.43-2l2.58-9.63h5.86v16.12h-3.85l.25-11.48v-1.62l-.14.57c-.21.92-.23 1-.41 1.71l-3 10.82H7.18L4.26 99.95l-.71-2.87c.07 1.28.07 1.55.14 3.08l.21 10.16H0zm22.81 0h4.06v10a4.34 4.34 0 0 0 .3 2 2.9 2.9 0 0 0 2.6 1.1c2.73 0 2.73-1.87 2.76-3.13v-10h4v9a8.49 8.49 0 0 1-.93 4.57c-1.73 2.79-5.31 2.92-6 2.92a8.55 8.55 0 0 1-3.74-.87c-3.1-1.6-3.1-4.43-3.08-6.62zm17 13.22l3.06-1.94a5 5 0 0 0 1.55 1.25 6.62 6.62 0 0 0 3.1.78c1.6 0 3-.75 3-1.87 0-1.28-1.62-1.48-2.8-1.64-.89-.11-1.78-.23-2.64-.41s-4.33-.91-4.33-4.38c0-4.16 3.69-5.39 6.47-5.39a9.8 9.8 0 0 1 7.11 3.06L51.3 99a7.33 7.33 0 0 0-1.6-1.3 5.77 5.77 0 0 0-2.62-.7c-1.6 0-2.39.91-2.39 1.69 0 1.23 1.36 1.42 2.05 1.51a31.28 31.28 0 0 1 4.92 1 4 4 0 0 1 2.78 4 5.36 5.36 0 0 1-1.28 3.42c-1.46 1.69-3.78 2.17-6 2.17-4.54 0-6.34-2.1-7.34-3.26m54.49-13.34h5.88l2.46 9 .57 2.58c.23-1.12.25-1.23.43-2l2.58-9.63h5.86v16.12h-3.85l.25-11.48v-1.62l-.14.57c-.21.92-.23 1-.41 1.71l-3 10.82h-3.46l-2.91-10.31-.71-2.87c.07 1.28.07 1.55.14 3.08l.21 10.16h-3.9zm28.67 8c0-4.36 2.76-8.49 7.93-8.49a9 9 0 0 1 2.94.48c4.92 1.71 5.24 7.08 5.24 8.18a8.76 8.76 0 0 1-3.05 6.73 7.73 7.73 0 0 1-5.06 1.69c-5.1 0-8-3.93-8-8.58m40.77 8.12l6-16.12h4.19l5.93 16.12h-4.28l-.8-2.58h-5.92l-.8 2.58zm18.78-16.12h7.25c1.69 0 3.78 0 5.26 1.64a5.41 5.41 0 0 1 1.28 3.58 4.33 4.33 0 0 1-3.3 4.45l3.71 6.44h-4.44l-3.19-5.75h-2.53v5.75h-4zm15.86 0h12.4v3.2h-4.17v12.94h-4V97.37h-4.22zm21 16.14l6-16.12h4.19l5.92 16.12h-4.29l-.8-2.58h-5.93l-.8 2.58zm38.09-16.12h5.13c2 0 4.92.07 7 1.89a8 8 0 0 1 2.3 6 11.09 11.09 0 0 1-.41 3.11c-1.48 5-6 5.06-7.66 5.09h-6.33zm18.55 0h4.06v10a4.32 4.32 0 0 0 .3 2 2.9 2.9 0 0 0 2.6 1.1c2.74 0 2.74-1.87 2.76-3.13v-10h4v9a8.47 8.47 0 0 1-.94 4.57c-1.73 2.79-5.31 2.92-6 2.92a8.54 8.54 0 0 1-3.74-.87c-3.1-1.6-3.1-4.43-3.08-6.62zm18.8 0h3.83v6.57l6-6.57h4.83l-5.7 6 6.21 10.09h-4.53l-4.35-7.31-2.46 2.58v4.72h-3.83zm59.44 0h3.94l3.49 5.94c1.27 2.26 1.66 3 2.42 4.41l-.18-10.34h3.85v16.12h-3.94l-3-5.09a56.58 56.58 0 0 1-2.82-5l.12 10.13h-3.86zm18.66 0h4v16.12h-4zm6.68 0h4.29l3.33 11.46 3.3-11.46h4.29l-5.58 16.12h-4.11zm51.49 13.22l3.05-1.94a5 5 0 0 0 1.55 1.25 6.61 6.61 0 0 0 3.1.78c1.59 0 3-.75 3-1.87 0-1.28-1.62-1.48-2.8-1.64-.89-.11-1.78-.23-2.64-.41s-4.33-.91-4.33-4.38c0-4.16 3.69-5.39 6.47-5.39a9.8 9.8 0 0 1 7.11 3.06l-3 2.12a7.47 7.47 0 0 0-1.6-1.3 5.78 5.78 0 0 0-2.62-.71c-1.6 0-2.39.91-2.39 1.69 0 1.23 1.37 1.42 2 1.51a31.14 31.14 0 0 1 4.92 1 4 4 0 0 1 2.78 4 5.37 5.37 0 0 1-1.27 3.42c-1.46 1.69-3.79 2.17-6 2.17-4.54 0-6.34-2.1-7.34-3.26m19-13.22h4v16.12h-4zm6.86 0h12.4v3.2h-4.17v12.94h-4V97.37H457z" fill="#6a6869"/></g></g></svg>